# xmcd
#
# Track frame offsets:
#   150
#   11549
#   24286
#   38361
#   48543
#   58083
#   64776
#   76014
#   93375
#   102466
#   111140
#   120964
#   130320
#   145379
#   165212
#   172887
#   186371
#   198828
#   215693
#   225885
#
# Disc length: 3123 seconds
#
# Revision: 0
# Processed by: cddbd v1.5.1PL2 Copyright (c) Steve Scherf et al.
# Submitted via: GXTranscoder 2.0.1939
#
DISCID=f90c3114
DTITLE=Johnny Rebel - The Good Old South " Country Style"
DYEAR=1900
DGENRE=Blues
TTITLE0=In Coon Town
TTITLE1=Keep A working big Jim
TTITLE2=Some Nigger Never Die
TTITLE3=Alabama Nigger
TTITLE4=I`m Gonna Stay A Jig
TTITLE5=Leroy the big lipped Nigger
TTITLE6=Livin next to a Nigger
TTITLE7=Looking for a Handout
TTITLE8=Move them niggers north
TTITLE9=Nigger Hater
TTITLE10=Nigger hatin`me
TTITLE11=Segragation wagon
TTITLE12=For bales
TTITLE13=Ship those Niggers back
TTITLE14=south shall rise again
TTITLE15=Story of Lavy Coon
TTITLE16=welfare Check
TTITLE17=What has happened to old Glory
TTITLE18=Who likes a nigger
TTITLE19=Who needs a nigger?
EXTD=
EXTT0=
EXTT1=
EXTT2=
EXTT3=
EXTT4=
EXTT5=
EXTT6=
EXTT7=
EXTT8=
EXTT9=
EXTT10=
EXTT11=
EXTT12=
EXTT13=
EXTT14=
EXTT15=
EXTT16=
EXTT17=
EXTT18=
EXTT19=
PLAYORDER=
